<svg xmlns="http://www.w3.org/2000/svg" viewBox="0 0 720 240" role="img" aria-labelledby="title">
  <title>Газпром</title>
  <rect width="720" height="240" rx="28" fill="none"/>
  <g fill="#1081d0">
    <path d="M80 184c-23 0-42-8-57-24C8 144 0 125 0 103c0-24 9-45 27-62C45 24 69 15 99 15c16 0 31 2 47 7v41c-15-7-29-10-43-10-18 0-32 5-43 15-11 10-16 22-16 37 0 16 5 29 14 38 9 10 21 14 35 14 9 0 18-2 27-6V112H76V76h106v130c-27 13-61 20-102 20z"/>
    <path d="M169 15c14 18 25 42 31 69 7-27 17-50 31-69h31c-14 17-24 37-30 60-5 18-9 46-11 84h-42c-2-38-6-66-11-84-6-23-16-43-30-60h31zm31 42c-9 13-16 31-20 54h40c-4-23-11-41-20-54z"/>
    <path d="M285 184l21-145h61l22 145h-43l-3-28h-30l-3 28h-25zm48-105l-7 48h15l-8-48z"/>
    <path d="M404 184V39h48c20 0 35 5 45 14 10 9 15 23 15 40 0 18-5 32-16 42-11 10-26 15-47 15h-11v34h-34zm34-62h7c11 0 19-2 24-6 5-4 7-10 7-18 0-8-2-14-7-18-5-4-12-6-23-6h-8v48z"/>
    <path d="M530 184V39h34v51h34V39h34v145h-34v-58h-34v58h-34z"/>
    <path d="M650 184V39h34v145h-34z"/>
  </g>
</svg>
