<svg xmlns="http://www.w3.org/2000/svg" viewBox="0 0 240 240" role="img" aria-labelledby="title">
  <title>Росатом</title>
  <defs>
    <linearGradient id="ra1" x1="0%" y1="0%" x2="100%" y2="100%">
      <stop offset="0%" stop-color="#0f1a58"/>
      <stop offset="100%" stop-color="#4ba8e6"/>
    </linearGradient>
  </defs>
  <rect width="240" height="240" rx="36" fill="none"/>
  <circle cx="120" cy="120" r="92" fill="none" stroke="url(#ra1)" stroke-width="18" opacity=".18"/>
  <path d="M120 46c25 0 49 9 66 24-12 22-29 38-52 49-15-16-31-31-47-44 10-18 20-28 33-29z" fill="url(#ra1)"/>
  <path d="M191 91c11 23 13 48 6 72-25 2-48-3-70-17 4-21 8-41 12-62 20-3 37-1 52 7z" fill="url(#ra1)"/>
  <path d="M168 176c-19 18-42 29-68 32-12-22-17-46-14-71 22-5 42-8 63-8 8 19 14 34 19 47z" fill="url(#ra1)"/>
  <circle cx="120" cy="120" r="18" fill="#173777"/>
</svg>
